<svg width="20" height="20" viewBox="0 0 20 20" fill="none" xmlns="http://www.w3.org/2000/svg">
<path d="M13.5 8.33334C13.5 8.33334 13.3333 9.16668 10.8333 12.5C8.41667 15.6667 11.9167 18 12.3333 18.3333H12.4167C12.9167 17.9167 19.25 13.9167 13.5 8.33334Z" stroke="#515162" stroke-width="1.5" stroke-miterlimit="10" stroke-linecap="round" stroke-linejoin="round"/>
<path d="M11.4999 6.49999C11.4999 4.58332 10.7499 2.83332 9.99992 1.83332C9.74992 1.58332 9.33326 1.66665 9.24992 1.99999C8.91659 3.24999 7.91659 5.91665 5.49992 9.08332C2.41659 13.0833 5.24992 17.4167 8.16659 18.25C9.74992 18.6667 7.74992 17.4167 7.49992 14.8333C7.24992 11.5833 11.4999 9.16665 11.4999 6.49999Z" stroke="#515162" stroke-width="1.5" stroke-miterlimit="10" stroke-linecap="round" stroke-linejoin="round"/>
</svg>
