<svg width="32" height="33" viewBox="0 0 32 33" fill="none" xmlns="http://www.w3.org/2000/svg">
<rect y="0.5" width="32" height="32" rx="8" fill="#153E3B"/>
<path d="M3.048 20.5V19.672C3.272 19.672 3.452 19.608 3.588 19.48C3.724 19.352 3.836 19.184 3.924 18.976C4.02 18.768 4.112 18.544 4.2 18.304L6.54 11.884H7.38L9.936 18.424C9.984 18.544 10.048 18.728 10.128 18.976C10.208 19.216 10.256 19.428 10.272 19.612C10.408 19.596 10.536 19.588 10.656 19.588C10.784 19.58 10.888 19.576 10.968 19.576V20.5H7.74V19.708C7.964 19.708 8.116 19.664 8.196 19.576C8.284 19.48 8.324 19.352 8.316 19.192C8.308 19.032 8.264 18.852 8.184 18.652L7.944 17.992L5.34 18.04L5.148 18.604C5.108 18.708 5.048 18.864 4.968 19.072C4.896 19.272 4.828 19.44 4.764 19.576C4.892 19.56 5.044 19.552 5.22 19.552C5.404 19.544 5.536 19.54 5.616 19.54V20.5H3.048ZM5.64 17.14H7.644L7.092 15.64C6.988 15.352 6.896 15.064 6.816 14.776C6.736 14.48 6.676 14.22 6.636 13.996H6.624C6.592 14.132 6.544 14.336 6.48 14.608C6.416 14.88 6.316 15.204 6.18 15.58L5.64 17.14ZM17.5733 14.788C17.4693 14.124 17.2453 13.624 16.9013 13.288C16.5653 12.952 16.1173 12.78 15.5573 12.772C15.1413 12.772 14.7773 12.868 14.4653 13.06C14.1533 13.252 13.8933 13.508 13.6853 13.828C13.4853 14.148 13.3333 14.512 13.2293 14.92C13.1333 15.328 13.0853 15.748 13.0853 16.18C13.0853 16.868 13.1813 17.48 13.3733 18.016C13.5733 18.544 13.8613 18.96 14.2373 19.264C14.6133 19.568 15.0693 19.72 15.6053 19.72C16.1093 19.72 16.6093 19.592 17.1053 19.336C17.6013 19.072 18.0173 18.708 18.3533 18.244L18.9293 18.772C18.5373 19.308 18.1253 19.716 17.6933 19.996C17.2613 20.268 16.8373 20.452 16.4213 20.548C16.0133 20.644 15.6453 20.692 15.3173 20.692C14.7013 20.692 14.1413 20.584 13.6373 20.368C13.1333 20.144 12.6973 19.84 12.3293 19.456C11.9693 19.064 11.6893 18.612 11.4893 18.1C11.2973 17.58 11.2013 17.02 11.2013 16.42C11.2013 15.876 11.2893 15.336 11.4653 14.8C11.6413 14.264 11.9013 13.78 12.2453 13.348C12.5973 12.908 13.0373 12.56 13.5653 12.304C14.0933 12.04 14.7053 11.908 15.4013 11.908C15.7133 11.908 16.0533 11.96 16.4213 12.064C16.7973 12.16 17.1493 12.304 17.4773 12.496L17.4293 11.992H18.3533V14.788H17.5733ZM26.027 20.62L22.187 15.712C22.083 15.576 21.975 15.432 21.863 15.28C21.751 15.128 21.639 14.972 21.527 14.812H21.515L21.539 18.532C21.539 18.748 21.535 18.956 21.527 19.156C21.519 19.356 21.507 19.508 21.491 19.612C21.619 19.596 21.779 19.588 21.971 19.588C22.171 19.58 22.311 19.576 22.391 19.576V20.5H19.655V19.708C19.839 19.7 19.991 19.676 20.111 19.636C20.239 19.596 20.335 19.504 20.399 19.36C20.471 19.216 20.507 18.984 20.507 18.664L20.483 14.068C20.483 13.852 20.487 13.644 20.495 13.444C20.503 13.244 20.515 13.092 20.531 12.988C20.403 12.996 20.239 13.004 20.039 13.012C19.847 13.012 19.707 13.016 19.619 13.024V12.1H21.503L25.175 16.732C25.375 16.988 25.539 17.208 25.667 17.392C25.803 17.576 25.919 17.736 26.015 17.872H26.027V14.068C26.027 13.852 26.031 13.644 26.039 13.444C26.047 13.244 26.055 13.092 26.063 12.988C25.935 12.996 25.775 13.004 25.583 13.012C25.391 13.012 25.251 13.016 25.163 13.024V12.1H27.899V12.892C27.723 12.9 27.571 12.924 27.443 12.964C27.315 13.004 27.215 13.096 27.143 13.24C27.079 13.376 27.047 13.608 27.047 13.936V20.62H26.027Z" fill="white"/>
</svg>
