<svg width="20" height="20" viewBox="0 0 20 20" fill="none" xmlns="http://www.w3.org/2000/svg">
<path d="M7.66095 4.875V7.76933M7.66095 7.76933V12.2723M7.66095 7.76933L9.2807 6.16146M7.66095 7.76933L6.04199 6.16146M7.66095 12.2723V15.1667M7.66095 12.2723L6.04199 13.8802M7.66095 12.2723L9.2807 13.8802M3.77466 8.41296L5.39441 10.0208M5.39441 10.0208L3.77466 11.6287M5.39441 10.0208H9.60449M5.39441 10.0208H2.47949M14.3545 18.3333C14.9736 18.3332 15.579 18.1516 16.096 17.811C16.6129 17.4705 17.0187 16.9858 17.2632 16.4171C17.5076 15.8483 17.58 15.2204 17.4714 14.611C17.3627 14.0015 17.0778 13.4373 16.6519 12.988C16.2513 12.5645 16.0502 12.3531 15.9948 12.2122C15.9378 12.0705 15.9378 11.8836 15.9378 11.5108V4.08333C15.9378 3.66341 15.771 3.26068 15.4741 2.96375C15.1771 2.66681 14.7744 2.5 14.3545 2.5C13.9346 2.5 13.5318 2.66681 13.2349 2.96375C12.938 3.26068 12.7712 3.66341 12.7712 4.08333V11.5108C12.7712 11.8844 12.7712 12.0705 12.715 12.2122C12.6587 12.3531 12.4577 12.5645 12.0571 12.988C11.6312 13.4373 11.3463 14.0015 11.2376 14.611C11.129 15.2204 11.2014 15.8483 11.4458 16.4171C11.6903 16.9858 12.0961 17.4705 12.613 17.811C13.13 18.1516 13.7354 18.3332 14.3545 18.3333Z" stroke="#515162" stroke-width="1.5" stroke-linecap="round" stroke-linejoin="round"/>
</svg>
