<svg width="16" height="16" viewBox="0 0 16 16" fill="none" xmlns="http://www.w3.org/2000/svg">
<path d="M5.99998 14.6663H9.99998C13.3333 14.6663 14.6666 13.333 14.6666 9.99967V5.99967C14.6666 2.66634 13.3333 1.33301 9.99998 1.33301H5.99998C2.66665 1.33301 1.33331 2.66634 1.33331 5.99967V9.99967C1.33331 13.333 2.66665 14.6663 5.99998 14.6663Z" stroke="#696979" stroke-linecap="round" stroke-linejoin="round"/>
<path d="M10.3333 12.3337C11.0667 12.3337 11.6667 11.7337 11.6667 11.0003V5.00033C11.6667 4.26699 11.0667 3.66699 10.3333 3.66699C9.6 3.66699 9 4.26699 9 5.00033V11.0003C9 11.7337 9.59333 12.3337 10.3333 12.3337Z" stroke="#696979" stroke-linecap="round" stroke-linejoin="round"/>
<path d="M5.66665 12.333C6.39998 12.333 6.99998 11.733 6.99998 10.9997V8.66634C6.99998 7.93301 6.39998 7.33301 5.66665 7.33301C4.93331 7.33301 4.33331 7.93301 4.33331 8.66634V10.9997C4.33331 11.733 4.92665 12.333 5.66665 12.333Z" stroke="#696979" stroke-linecap="round" stroke-linejoin="round"/>
</svg>
