<svg width="16" height="16" viewBox="0 0 16 16" fill="none" xmlns="http://www.w3.org/2000/svg">
<path d="M6.74003 7.43359H4.97337C4.55337 7.43359 4.21338 7.77356 4.21338 8.19356V11.6069H6.74003V7.43359V7.43359Z" stroke="#696979" stroke-miterlimit="10" stroke-linecap="round" stroke-linejoin="round"/>
<path d="M8.50771 4.39844H7.49436C7.07436 4.39844 6.73438 4.73845 6.73438 5.15845V11.5985H9.26105V5.15845C9.26105 4.73845 8.92771 4.39844 8.50771 4.39844Z" stroke="#696979" stroke-miterlimit="10" stroke-linecap="round" stroke-linejoin="round"/>
<path d="M11.0323 8.56641H9.26562V11.5998H11.7923V9.32642C11.7856 8.90642 11.4456 8.56641 11.0323 8.56641Z" stroke="#696979" stroke-miterlimit="10" stroke-linecap="round" stroke-linejoin="round"/>
<path d="M6.00016 14.6654H10.0002C13.3335 14.6654 14.6668 13.332 14.6668 9.9987V5.9987C14.6668 2.66536 13.3335 1.33203 10.0002 1.33203H6.00016C2.66683 1.33203 1.3335 2.66536 1.3335 5.9987V9.9987C1.3335 13.332 2.66683 14.6654 6.00016 14.6654Z" stroke="#696979" stroke-linecap="round" stroke-linejoin="round"/>
</svg>
