<svg width="16" height="16" viewBox="0 0 16 16" fill="none" xmlns="http://www.w3.org/2000/svg">
<path d="M12.3332 13H9.6665" stroke="#696979" stroke-linecap="round" stroke-linejoin="round"/>
<path d="M11 14.3346V11.668" stroke="#696979" stroke-linecap="round" stroke-linejoin="round"/>
<path d="M8.10673 7.24536C8.04006 7.2387 7.96006 7.2387 7.88673 7.24536C6.30006 7.19203 5.04006 5.89203 5.04006 4.29203C5.0334 2.6587 6.36006 1.33203 7.9934 1.33203C9.62673 1.33203 10.9534 2.6587 10.9534 4.29203C10.9534 5.89203 9.68673 7.19203 8.10673 7.24536Z" stroke="#696979" stroke-linecap="round" stroke-linejoin="round"/>
<path d="M7.99336 14.5385C6.78003 14.5385 5.57336 14.2318 4.65336 13.6185C3.04003 12.5385 3.04003 10.7785 4.65336 9.70516C6.48669 8.47849 9.49336 8.47849 11.3267 9.70516" stroke="#696979" stroke-linecap="round" stroke-linejoin="round"/>
</svg>
