<svg width="16" height="16" viewBox="0 0 16 16" fill="none" xmlns="http://www.w3.org/2000/svg">
<path d="M8.01333 1.94043C5.80666 1.94043 4.01333 3.73376 4.01333 5.94043V7.8671C4.01333 8.27376 3.84 8.89376 3.63333 9.24043L2.86666 10.5138C2.39333 11.3004 2.72 12.1738 3.58666 12.4671C6.46 13.4271 9.56 13.4271 12.4333 12.4671C13.24 12.2004 13.5933 11.2471 13.1533 10.5138L12.3867 9.24043C12.1867 8.89376 12.0133 8.27376 12.0133 7.8671V5.94043C12.0133 3.74043 10.2133 1.94043 8.01333 1.94043Z" stroke="#696979" stroke-miterlimit="10" stroke-linecap="round"/>
<path d="M9.2467 2.13297C9.04003 2.07297 8.8267 2.0263 8.6067 1.99964C7.9667 1.91964 7.35336 1.9663 6.78003 2.13297C6.97336 1.63964 7.45336 1.29297 8.01336 1.29297C8.57336 1.29297 9.05336 1.63964 9.2467 2.13297Z" stroke="#696979" stroke-miterlimit="10" stroke-linecap="round" stroke-linejoin="round"/>
<path d="M10.0133 12.707C10.0133 13.807 9.11331 14.707 8.01331 14.707C7.46664 14.707 6.95997 14.4804 6.59997 14.1204C6.23997 13.7604 6.01331 13.2537 6.01331 12.707" stroke="#696979" stroke-miterlimit="10"/>
</svg>
