<svg width="16" height="16" viewBox="0 0 16 16" fill="none" xmlns="http://www.w3.org/2000/svg">
<path d="M1.33203 14.667H14.6654" stroke="#696979" stroke-miterlimit="10" stroke-linecap="round" stroke-linejoin="round"/>
<path d="M1.96484 14.6665L1.99818 6.6465C1.99818 6.23983 2.19151 5.8532 2.51151 5.59987L7.17818 1.96652C7.65818 1.59319 8.33151 1.59319 8.81818 1.96652L13.4848 5.59319C13.8115 5.84653 13.9982 6.23316 13.9982 6.6465V14.6665" stroke="#696979" stroke-miterlimit="10" stroke-linejoin="round"/>
<path d="M8.66536 11.333H7.33203C6.7787 11.333 6.33203 11.7797 6.33203 12.333V14.6663H9.66536V12.333C9.66536 11.7797 9.2187 11.333 8.66536 11.333Z" stroke="#696979" stroke-miterlimit="10" stroke-linejoin="round"/>
<path d="M6.33203 9.16634H4.9987C4.63203 9.16634 4.33203 8.86634 4.33203 8.49967V7.49967C4.33203 7.13301 4.63203 6.83301 4.9987 6.83301H6.33203C6.6987 6.83301 6.9987 7.13301 6.9987 7.49967V8.49967C6.9987 8.86634 6.6987 9.16634 6.33203 9.16634Z" stroke="#696979" stroke-miterlimit="10" stroke-linejoin="round"/>
<path d="M11 9.16634H9.66667C9.3 9.16634 9 8.86634 9 8.49967V7.49967C9 7.13301 9.3 6.83301 9.66667 6.83301H11C11.3667 6.83301 11.6667 7.13301 11.6667 7.49967V8.49967C11.6667 8.86634 11.3667 9.16634 11 9.16634Z" stroke="#696979" stroke-miterlimit="10" stroke-linejoin="round"/>
<path d="M12.6682 4.66699L12.6482 2.66699H9.71484" stroke="#696979" stroke-miterlimit="10" stroke-linecap="round" stroke-linejoin="round"/>
</svg>
