<svg width="16" height="16" viewBox="0 0 16 16" fill="none" xmlns="http://www.w3.org/2000/svg">
<path d="M1.3335 14.668H14.6668" stroke="#696979" stroke-miterlimit="10" stroke-linecap="round" stroke-linejoin="round"/>
<path d="M1.9668 14.6675L2.00013 6.64747C2.00013 6.24081 2.19346 5.85417 2.51346 5.60084L7.18013 1.9675C7.66013 1.59417 8.33346 1.59417 8.82013 1.9675L13.4868 5.59417C13.8135 5.8475 14.0001 6.23414 14.0001 6.64747V14.6675" stroke="#696979" stroke-miterlimit="10" stroke-linejoin="round"/>
<path d="M8.66683 11.332H7.3335C6.78016 11.332 6.3335 11.7787 6.3335 12.332V14.6654H9.66683V12.332C9.66683 11.7787 9.22016 11.332 8.66683 11.332Z" stroke="#696979" stroke-miterlimit="10" stroke-linejoin="round"/>
<path d="M6.3335 9.16536H5.00016C4.6335 9.16536 4.3335 8.86536 4.3335 8.4987V7.4987C4.3335 7.13203 4.6335 6.83203 5.00016 6.83203H6.3335C6.70016 6.83203 7.00016 7.13203 7.00016 7.4987V8.4987C7.00016 8.86536 6.70016 9.16536 6.3335 9.16536Z" stroke="#696979" stroke-miterlimit="10" stroke-linejoin="round"/>
<path d="M11 9.16536H9.66667C9.3 9.16536 9 8.86536 9 8.4987V7.4987C9 7.13203 9.3 6.83203 9.66667 6.83203H11C11.3667 6.83203 11.6667 7.13203 11.6667 7.4987V8.4987C11.6667 8.86536 11.3667 9.16536 11 9.16536Z" stroke="#696979" stroke-miterlimit="10" stroke-linejoin="round"/>
<path d="M12.6667 4.66797L12.6467 2.66797H9.71338" stroke="#515162" stroke-miterlimit="10" stroke-linecap="round" stroke-linejoin="round"/>
</svg>
