<svg width="16" height="16" viewBox="0 0 16 16" fill="none" xmlns="http://www.w3.org/2000/svg">
<path d="M4.46684 11.9987H2.76685C1.81351 11.9987 1.3335 11.5187 1.3335 10.5653V2.76538C1.3335 1.81205 1.81351 1.33203 2.76685 1.33203H5.6335C6.58684 1.33203 7.06681 1.81205 7.06681 2.76538V3.9987" stroke="#696979" stroke-miterlimit="10" stroke-linecap="round" stroke-linejoin="round"/>
<path d="M11.5801 5.61332V13.0533C11.5801 14.1267 11.0468 14.6667 9.97347 14.6667H6.08012C5.00679 14.6667 4.4668 14.1267 4.4668 13.0533V5.61332C4.4668 4.53999 5.00679 4 6.08012 4H9.97347C11.0468 4 11.5801 4.53999 11.5801 5.61332Z" stroke="#696979" stroke-miterlimit="10" stroke-linecap="round" stroke-linejoin="round"/>
<path d="M8.93359 3.9987V2.76538C8.93359 1.81205 9.41357 1.33203 10.3669 1.33203H13.2336C14.1869 1.33203 14.6669 1.81205 14.6669 2.76538V10.5653C14.6669 11.5187 14.1869 11.9987 13.2336 11.9987H11.5802" stroke="#696979" stroke-miterlimit="10" stroke-linecap="round" stroke-linejoin="round"/>
<path d="M6.6665 7.33203H9.33317" stroke="#696979" stroke-miterlimit="10" stroke-linecap="round" stroke-linejoin="round"/>
<path d="M6.6665 9.33203H9.33317" stroke="#696979" stroke-miterlimit="10" stroke-linecap="round" stroke-linejoin="round"/>
<path d="M8 14.668V12.668" stroke="#515162" stroke-miterlimit="10" stroke-linecap="round" stroke-linejoin="round"/>
</svg>
