<svg width="15" height="16" viewBox="0 0 15 16" fill="none" xmlns="http://www.w3.org/2000/svg">
<path d="M7.5 9.875C8.53553 9.875 9.375 9.03553 9.375 8C9.375 6.96447 8.53553 6.125 7.5 6.125C6.46447 6.125 5.625 6.96447 5.625 8C5.625 9.03553 6.46447 9.875 7.5 9.875Z" stroke="#696979" stroke-miterlimit="10" stroke-linecap="round" stroke-linejoin="round"/>
<path d="M1.25 8.55001V7.45001C1.25 6.80001 1.78125 6.26251 2.4375 6.26251C3.56875 6.26251 4.03125 5.46251 3.4625 4.48126C3.1375 3.91876 3.33125 3.18751 3.9 2.86251L4.98125 2.24376C5.475 1.95001 6.1125 2.12501 6.40625 2.61876L6.475 2.73751C7.0375 3.71876 7.9625 3.71876 8.53125 2.73751L8.6 2.61876C8.89375 2.12501 9.53125 1.95001 10.025 2.24376L11.1063 2.86251C11.675 3.18751 11.8687 3.91876 11.5437 4.48126C10.975 5.46251 11.4375 6.26251 12.5688 6.26251C13.2188 6.26251 13.7563 6.79376 13.7563 7.45001V8.55001C13.7563 9.20001 13.225 9.73751 12.5688 9.73751C11.4375 9.73751 10.975 10.5375 11.5437 11.5188C11.8687 12.0875 11.675 12.8125 11.1063 13.1375L10.025 13.7563C9.53125 14.05 8.89375 13.875 8.6 13.3813L8.53125 13.2625C7.96875 12.2813 7.04375 12.2813 6.475 13.2625L6.40625 13.3813C6.1125 13.875 5.475 14.05 4.98125 13.7563L3.9 13.1375C3.33125 12.8125 3.1375 12.0813 3.4625 11.5188C4.03125 10.5375 3.56875 9.73751 2.4375 9.73751C1.78125 9.73751 1.25 9.20001 1.25 8.55001Z" stroke="#696979" stroke-miterlimit="10" stroke-linecap="round" stroke-linejoin="round"/>
</svg>
