<svg width="16" height="16" viewBox="0 0 16 16" fill="none" xmlns="http://www.w3.org/2000/svg">
<path d="M8.21484 15.75C12.4951 15.75 15.9648 12.2802 15.9648 8C15.9648 3.71979 12.4951 0.25 8.21484 0.25C3.93464 0.25 0.464844 3.71979 0.464844 8C0.464844 12.2802 3.93464 15.75 8.21484 15.75Z" fill="#FFECE8"/>
<path d="M14.4335 12.6187C13.7107 11.651 12.7721 10.8653 11.6924 10.3239C10.6127 9.78247 9.42163 9.50038 8.2138 9.5C7.00597 9.49962 5.8147 9.78097 4.73466 10.3217C3.65462 10.8624 2.71559 11.6476 1.99219 12.6148C2.71191 13.5869 3.64941 14.3769 4.72952 14.9214C5.80962 15.4658 7.00227 15.7496 8.21184 15.75C9.42141 15.7504 10.6142 15.4673 11.6947 14.9236C12.7751 14.3798 13.7131 13.5904 14.4335 12.6187Z" fill="#F5A86C"/>
<path d="M8.21484 8.5C9.8717 8.5 11.2148 7.15685 11.2148 5.5C11.2148 3.84315 9.8717 2.5 8.21484 2.5C6.55799 2.5 5.21484 3.84315 5.21484 5.5C5.21484 7.15685 6.55799 8.5 8.21484 8.5Z" fill="#F5A86C"/>
</svg>
