<svg width="16" height="16" viewBox="0 0 16 16" fill="none" xmlns="http://www.w3.org/2000/svg">
<path d="M10.6666 8.5987V11.3987C10.6666 13.732 9.73331 14.6654 7.39998 14.6654H4.59998C2.26665 14.6654 1.33331 13.732 1.33331 11.3987V8.5987C1.33331 6.26536 2.26665 5.33203 4.59998 5.33203H7.39998C9.73331 5.33203 10.6666 6.26536 10.6666 8.5987Z" stroke="#3A3A47" stroke-linecap="round" stroke-linejoin="round"/>
<path d="M14.6666 4.5987V7.3987C14.6666 9.73203 13.7333 10.6654 11.4 10.6654H10.6666V8.5987C10.6666 6.26536 9.73331 5.33203 7.39998 5.33203H5.33331V4.5987C5.33331 2.26536 6.26665 1.33203 8.59998 1.33203H11.4C13.7333 1.33203 14.6666 2.26536 14.6666 4.5987Z" stroke="#3A3A47" stroke-linecap="round" stroke-linejoin="round"/>
</svg>

