<svg width="16" height="16" viewBox="0 0 16 16" fill="none" xmlns="http://www.w3.org/2000/svg">
<path d="M8.13391 7.86681L7.19389 8.80681C6.67389 9.32681 6.67389 10.1735 7.19389 10.6935C7.71388 11.2135 8.56056 11.2135 9.08056 10.6935L10.5606 9.21349C11.6006 8.17349 11.6006 6.48682 10.5606 5.44016C9.52058 4.40016 7.83389 4.40016 6.78723 5.44016L5.17391 7.05348C4.28057 7.94681 4.28057 9.39348 5.17391 10.2868" stroke="#3A3A47" stroke-linecap="round" stroke-linejoin="round"/>
<path d="M6.00065 14.6654H10.0007C13.334 14.6654 14.6673 13.332 14.6673 9.9987V5.9987C14.6673 2.66536 13.334 1.33203 10.0007 1.33203H6.00065C2.66732 1.33203 1.33398 2.66536 1.33398 5.9987V9.9987C1.33398 13.332 2.66732 14.6654 6.00065 14.6654Z" stroke="#3A3A47" stroke-linecap="round" stroke-linejoin="round"/>
</svg>
