<svg xmlns="http://www.w3.org/2000/svg" width="16" height="16" viewBox="0 0 16 16" fill="none">
<path d="M10.3452 0.958984C11.0256 0.872052 11.7129 1.10469 12.4097 1.66797L12.7095 1.92969L12.7104 1.93066C13.5127 2.68939 13.8775 3.45924 13.8228 4.24316C13.7698 5.00057 13.3303 5.64093 12.8296 6.16992L7.36182 11.957L7.36279 11.958C7.20833 12.1273 6.99938 12.271 6.80127 12.377C6.60187 12.4836 6.37034 12.5748 6.15381 12.6133H6.15088L4.00439 12.9795C3.48419 13.069 2.98573 12.9395 2.63037 12.6025C2.27541 12.2659 2.11816 11.7749 2.17627 11.252V11.251L2.42334 9.09082L2.42432 9.08105C2.45311 8.86545 2.53307 8.6321 2.62744 8.42969C2.72157 8.22784 2.85045 8.01336 3.00244 7.85156L3.00342 7.85059L8.47705 2.05762V2.05664C8.97803 1.5275 9.5937 1.05508 10.3452 0.958984Z" stroke="#3A3A47" stroke-miterlimit="10" stroke-linecap="round" stroke-linejoin="round"/>
<path d="M2 14.668H14" stroke="#3A3A47" stroke-miterlimit="10" stroke-linecap="round" stroke-linejoin="round"/>
</svg>