<svg width="17" height="16" viewBox="0 0 17 16" fill="none" xmlns="http://www.w3.org/2000/svg">
<g clip-path="url(#clip0_157_33559)">
<path d="M12.4648 0H3.96484C1.89378 0 0.214844 1.67893 0.214844 3.75V12.25C0.214844 14.3211 1.89378 16 3.96484 16H12.4648C14.5359 16 16.2148 14.3211 16.2148 12.25V3.75C16.2148 1.67893 14.5359 0 12.4648 0Z" fill="url(#paint0_radial_157_33559)"/>
<path d="M12.4648 0H3.96484C1.89378 0 0.214844 1.67893 0.214844 3.75V12.25C0.214844 14.3211 1.89378 16 3.96484 16H12.4648C14.5359 16 16.2148 14.3211 16.2148 12.25V3.75C16.2148 1.67893 14.5359 0 12.4648 0Z" fill="url(#paint1_radial_157_33559)"/>
<path d="M8.21541 1.75C6.51803 1.75 6.30497 1.75744 5.63834 1.78775C4.97297 1.81825 4.51878 1.92356 4.12141 2.07812C3.71028 2.23775 3.36159 2.45131 3.01422 2.79881C2.66653 3.14625 2.45297 3.49494 2.29284 3.90587C2.13784 4.30338 2.03241 4.75775 2.00247 5.42281C1.97266 6.0895 1.96484 6.30263 1.96484 8.00006C1.96484 9.6975 1.97234 9.90987 2.00259 10.5765C2.03322 11.2419 2.13853 11.6961 2.29297 12.0934C2.45272 12.5046 2.66628 12.8533 3.01378 13.2006C3.36109 13.5483 3.70978 13.7624 4.12059 13.922C4.51828 14.0766 4.97253 14.1819 5.63778 14.2124C6.30447 14.2427 6.51734 14.2501 8.21466 14.2501C9.91222 14.2501 10.1246 14.2427 10.7912 14.2124C11.4566 14.1819 11.9113 14.0766 12.309 13.922C12.7199 13.7624 13.0681 13.5483 13.4153 13.2006C13.763 12.8533 13.9765 12.5046 14.1367 12.0936C14.2903 11.6961 14.3958 11.2417 14.4271 10.5766C14.457 9.91 14.4648 9.6975 14.4648 8.00006C14.4648 6.30263 14.457 6.08962 14.4271 5.42294C14.3958 4.75756 14.2903 4.30344 14.1367 3.90606C13.9765 3.49494 13.763 3.14625 13.4153 2.79881C13.0677 2.45119 12.72 2.23762 12.3086 2.07819C11.9102 1.92356 11.4557 1.81819 10.7903 1.78775C10.1237 1.75744 9.91141 1.75 8.21347 1.75H8.21541ZM7.65472 2.87631C7.82116 2.87606 8.00684 2.87631 8.21541 2.87631C9.88422 2.87631 10.082 2.88231 10.741 2.91225C11.3503 2.94012 11.6811 3.04194 11.9014 3.1275C12.1931 3.24075 12.401 3.37619 12.6197 3.595C12.8384 3.81375 12.9738 4.02206 13.0873 4.31375C13.1729 4.53375 13.2748 4.8645 13.3026 5.47388C13.3325 6.13275 13.339 6.33062 13.339 7.99862C13.339 9.66663 13.3325 9.86456 13.3026 10.5234C13.2747 11.1327 13.1729 11.4635 13.0873 11.6836C12.9741 11.9753 12.8384 12.1829 12.6197 12.4016C12.4009 12.6203 12.1932 12.7557 11.9014 12.869C11.6813 12.9549 11.3503 13.0565 10.741 13.0844C10.0821 13.1143 9.88422 13.1208 8.21541 13.1208C6.54653 13.1208 6.34872 13.1143 5.68991 13.0844C5.08053 13.0563 4.74978 12.9544 4.52928 12.8689C4.23766 12.7556 4.02928 12.6202 3.81053 12.4014C3.59178 12.1827 3.45641 11.9749 3.34284 11.6831C3.25728 11.463 3.15534 11.1322 3.12759 10.5229C3.09766 9.864 3.09166 9.66613 3.09166 7.99706C3.09166 6.328 3.09766 6.13119 3.12759 5.47231C3.15547 4.86294 3.25728 4.53219 3.34284 4.31187C3.45616 4.02019 3.59178 3.81188 3.81059 3.59313C4.02941 3.37438 4.23766 3.23894 4.52934 3.12544C4.74966 3.0395 5.08053 2.93794 5.68991 2.90994C6.26647 2.88387 6.48991 2.87606 7.65472 2.87475V2.87631ZM11.5517 3.91406C11.1376 3.91406 10.8017 4.24969 10.8017 4.66381C10.8017 5.07788 11.1376 5.41381 11.5517 5.41381C11.9657 5.41381 12.3017 5.07788 12.3017 4.66381C12.3017 4.24975 11.9657 3.91381 11.5517 3.91381V3.91406ZM8.21541 4.79038C6.44291 4.79038 5.00578 6.2275 5.00578 8.00006C5.00578 9.77262 6.44291 11.2091 8.21541 11.2091C9.98797 11.2091 11.4246 9.77262 11.4246 8.00006C11.4246 6.22756 9.98784 4.79038 8.21528 4.79038H8.21541ZM8.21541 5.91669C9.36597 5.91669 10.2988 6.84938 10.2988 8.00006C10.2988 9.15063 9.36597 10.0834 8.21541 10.0834C7.06484 10.0834 6.13209 9.15063 6.13209 8.00006C6.13209 6.84938 7.06478 5.91669 8.21541 5.91669Z" fill="white"/>
</g>
<defs>
<radialGradient id="paint0_radial_157_33559" cx="0" cy="0" r="1" gradientUnits="userSpaceOnUse" gradientTransform="translate(4.46484 17.2323) rotate(-90) scale(15.8572 14.7484)">
<stop stop-color="#FFDD55"/>
<stop offset="0.1" stop-color="#FFDD55"/>
<stop offset="0.5" stop-color="#FF543E"/>
<stop offset="1" stop-color="#C837AB"/>
</radialGradient>
<radialGradient id="paint1_radial_157_33559" cx="0" cy="0" r="1" gradientUnits="userSpaceOnUse" gradientTransform="translate(-2.46522 1.15256) rotate(78.681) scale(7.08825 29.218)">
<stop stop-color="#3771C8"/>
<stop offset="0.128" stop-color="#3771C8"/>
<stop offset="1" stop-color="#6600FF" stop-opacity="0"/>
</radialGradient>
<clipPath id="clip0_157_33559">
<rect width="16" height="16" fill="white" transform="translate(0.214844)"/>
</clipPath>
</defs>
</svg>
