<svg width="29" height="28" viewBox="0 0 29 28" fill="none" xmlns="http://www.w3.org/2000/svg">
<rect x="0.111816" width="28" height="28" rx="4" fill="#F3F3F3"/>
<path d="M20.7586 18.2187C20.7586 18.4587 20.7053 18.7054 20.592 18.9454C20.4786 19.1854 20.332 19.412 20.1386 19.6254C19.812 19.9854 19.452 20.2454 19.0453 20.412C18.6453 20.5787 18.212 20.6654 17.7453 20.6654C17.0653 20.6654 16.3386 20.5054 15.572 20.1787C14.8053 19.852 14.0386 19.412 13.2786 18.8587C12.512 18.2987 11.7853 17.6787 11.092 16.992C10.4053 16.2987 9.78531 15.572 9.23198 14.812C8.68531 14.052 8.24531 13.292 7.92531 12.5387C7.60531 11.7787 7.44531 11.052 7.44531 10.3587C7.44531 9.90536 7.52531 9.47203 7.68531 9.07203C7.84531 8.66536 8.09865 8.29203 8.45198 7.9587C8.87865 7.5387 9.34531 7.33203 9.83865 7.33203C10.0253 7.33203 10.212 7.37203 10.3786 7.45203C10.552 7.53203 10.7053 7.65203 10.8253 7.82536L12.372 10.0054C12.492 10.172 12.5786 10.3254 12.6386 10.472C12.6986 10.612 12.732 10.752 12.732 10.8787C12.732 11.0387 12.6853 11.1987 12.592 11.352C12.5053 11.5054 12.3786 11.6654 12.2186 11.8254L11.712 12.352C11.6386 12.4254 11.6053 12.512 11.6053 12.6187C11.6053 12.672 11.612 12.7187 11.6253 12.772C11.6453 12.8254 11.6653 12.8654 11.6786 12.9054C11.7986 13.1254 12.0053 13.412 12.2986 13.7587C12.5986 14.1054 12.9186 14.4587 13.2653 14.812C13.6253 15.1654 13.972 15.492 14.3253 15.792C14.672 16.0854 14.9586 16.2854 15.1853 16.4054C15.2186 16.4187 15.2586 16.4387 15.3053 16.4587C15.3586 16.4787 15.412 16.4854 15.472 16.4854C15.5853 16.4854 15.672 16.4454 15.7453 16.372L16.252 15.872C16.4186 15.7054 16.5786 15.5787 16.732 15.4987C16.8853 15.4054 17.0386 15.3587 17.2053 15.3587C17.332 15.3587 17.4653 15.3854 17.612 15.4454C17.7586 15.5054 17.912 15.592 18.0786 15.7054L20.2853 17.272C20.4586 17.392 20.5786 17.532 20.652 17.6987C20.7186 17.8654 20.7586 18.032 20.7586 18.2187Z" stroke="#3A3A47" stroke-miterlimit="10"/>
</svg>
