<svg width="29" height="28" viewBox="0 0 29 28" fill="none" xmlns="http://www.w3.org/2000/svg">
<rect x="0.5" width="28" height="28" rx="4" fill="#D3D4DD"/>
<path d="M21.1454 18.2187C21.1454 18.4587 21.092 18.7054 20.9787 18.9454C20.8654 19.1854 20.7187 19.412 20.5254 19.6254C20.1987 19.9854 19.8387 20.2454 19.432 20.412C19.032 20.5787 18.5987 20.6654 18.132 20.6654C17.452 20.6654 16.7254 20.5054 15.9587 20.1787C15.192 19.852 14.4254 19.412 13.6654 18.8587C12.8987 18.2987 12.172 17.6787 11.4787 16.992C10.792 16.2987 10.172 15.572 9.6187 14.812C9.07203 14.052 8.63203 13.292 8.31203 12.5387C7.99203 11.7787 7.83203 11.052 7.83203 10.3587C7.83203 9.90536 7.91203 9.47203 8.07203 9.07203C8.23203 8.66536 8.48536 8.29203 8.8387 7.9587C9.26536 7.5387 9.73203 7.33203 10.2254 7.33203C10.412 7.33203 10.5987 7.37203 10.7654 7.45203C10.9387 7.53203 11.092 7.65203 11.212 7.82536L12.7587 10.0054C12.8787 10.172 12.9654 10.3254 13.0254 10.472C13.0854 10.612 13.1187 10.752 13.1187 10.8787C13.1187 11.0387 13.072 11.1987 12.9787 11.352C12.892 11.5054 12.7654 11.6654 12.6054 11.8254L12.0987 12.352C12.0254 12.4254 11.992 12.512 11.992 12.6187C11.992 12.672 11.9987 12.7187 12.012 12.772C12.032 12.8254 12.052 12.8654 12.0654 12.9054C12.1854 13.1254 12.392 13.412 12.6854 13.7587C12.9854 14.1054 13.3054 14.4587 13.652 14.812C14.012 15.1654 14.3587 15.492 14.712 15.792C15.0587 16.0854 15.3454 16.2854 15.572 16.4054C15.6054 16.4187 15.6454 16.4387 15.692 16.4587C15.7454 16.4787 15.7987 16.4854 15.8587 16.4854C15.972 16.4854 16.0587 16.4454 16.132 16.372L16.6387 15.872C16.8054 15.7054 16.9654 15.5787 17.1187 15.4987C17.272 15.4054 17.4254 15.3587 17.592 15.3587C17.7187 15.3587 17.852 15.3854 17.9987 15.4454C18.1454 15.5054 18.2987 15.592 18.4654 15.7054L20.672 17.272C20.8454 17.392 20.9654 17.532 21.0387 17.6987C21.1054 17.8654 21.1454 18.032 21.1454 18.2187Z" stroke="#3A3A47" stroke-miterlimit="10"/>
</svg>
