<svg width="33" height="33" viewBox="0 0 33 33" fill="none" xmlns="http://www.w3.org/2000/svg">
<rect x="0.5" y="0.5" width="32" height="32" rx="4" fill="#D3D4DD"/>
<path d="M19.8066 12.6133C21.14 13.5399 22.06 15.0133 22.2466 16.7133" stroke="#0A0B0A" stroke-linecap="round" stroke-linejoin="round"/>
<path d="M10.8262 16.7484C10.9995 15.0551 11.9062 13.5818 13.2262 12.6484" stroke="#0A0B0A" stroke-linecap="round" stroke-linejoin="round"/>
<path d="M13.9609 22.4609C14.7343 22.8543 15.6143 23.0743 16.5409 23.0743C17.4343 23.0743 18.2743 22.8743 19.0276 22.5076" stroke="#0A0B0A" stroke-linecap="round" stroke-linejoin="round"/>
<path d="M16.5408 13.6324C17.5644 13.6324 18.3942 12.8027 18.3942 11.7791C18.3942 10.7555 17.5644 9.92578 16.5408 9.92578C15.5173 9.92578 14.6875 10.7555 14.6875 11.7791C14.6875 12.8027 15.5173 13.6324 16.5408 13.6324Z" stroke="#0A0B0A" stroke-linecap="round" stroke-linejoin="round"/>
<path d="M11.7205 21.7809C12.7441 21.7809 13.5739 20.9511 13.5739 19.9276C13.5739 18.904 12.7441 18.0742 11.7205 18.0742C10.697 18.0742 9.86719 18.904 9.86719 19.9276C9.86719 20.9511 10.697 21.7809 11.7205 21.7809Z" stroke="#0A0B0A" stroke-linecap="round" stroke-linejoin="round"/>
<path d="M21.2791 21.7809C22.3027 21.7809 23.1324 20.9511 23.1324 19.9276C23.1324 18.904 22.3027 18.0742 21.2791 18.0742C20.2555 18.0742 19.4258 18.904 19.4258 19.9276C19.4258 20.9511 20.2555 21.7809 21.2791 21.7809Z" stroke="#0A0B0A" stroke-linecap="round" stroke-linejoin="round"/>
</svg>
