<svg width="28" height="29" viewBox="0 0 28 29" fill="none" xmlns="http://www.w3.org/2000/svg">
<rect y="0.5" width="28" height="28" rx="4" fill="#D3D4DD"/>
<path d="M17.3086 10.6133C18.6419 11.5399 19.5619 13.0133 19.7486 14.7133" stroke="#0A0B0A" stroke-linecap="round" stroke-linejoin="round"/>
<path d="M8.32812 14.7484C8.50146 13.0551 9.40813 11.5818 10.7281 10.6484" stroke="#0A0B0A" stroke-linecap="round" stroke-linejoin="round"/>
<path d="M11.4609 20.4609C12.2343 20.8543 13.1143 21.0743 14.0409 21.0743C14.9343 21.0743 15.7743 20.8743 16.5276 20.5076" stroke="#0A0B0A" stroke-linecap="round" stroke-linejoin="round"/>
<path d="M14.0408 11.6324C15.0644 11.6324 15.8942 10.8027 15.8942 9.77911C15.8942 8.75555 15.0644 7.92578 14.0408 7.92578C13.0173 7.92578 12.1875 8.75555 12.1875 9.77911C12.1875 10.8027 13.0173 11.6324 14.0408 11.6324Z" stroke="#0A0B0A" stroke-linecap="round" stroke-linejoin="round"/>
<path d="M9.22052 19.7809C10.2441 19.7809 11.0739 18.9511 11.0739 17.9276C11.0739 16.904 10.2441 16.0742 9.22052 16.0742C8.19695 16.0742 7.36719 16.904 7.36719 17.9276C7.36719 18.9511 8.19695 19.7809 9.22052 19.7809Z" stroke="#0A0B0A" stroke-linecap="round" stroke-linejoin="round"/>
<path d="M18.7791 19.7809C19.8027 19.7809 20.6324 18.9511 20.6324 17.9276C20.6324 16.904 19.8027 16.0742 18.7791 16.0742C17.7555 16.0742 16.9258 16.904 16.9258 17.9276C16.9258 18.9511 17.7555 19.7809 18.7791 19.7809Z" stroke="#0A0B0A" stroke-linecap="round" stroke-linejoin="round"/>
</svg>
