<svg xmlns="http://www.w3.org/2000/svg" width="16" height="16" viewBox="0 0 16 16" fill="none">
  <path d="M11.3066 4.11328C12.64 5.03995 13.56 6.51328 13.7466 8.21328" stroke="#0A0B0A" stroke-linecap="round" stroke-linejoin="round"/>
  <path d="M2.32617 8.24844C2.49951 6.5551 3.40617 5.08177 4.72617 4.14844" stroke="#0A0B0A" stroke-linecap="round" stroke-linejoin="round"/>
  <path d="M5.46094 13.9609C6.23427 14.3543 7.11427 14.5743 8.04094 14.5743C8.93427 14.5743 9.77427 14.3743 10.5276 14.0076" stroke="#0A0B0A" stroke-linecap="round" stroke-linejoin="round"/>
  <path d="M8.04083 5.13245C9.0644 5.13245 9.89417 4.30268 9.89417 3.27911C9.89417 2.25555 9.0644 1.42578 8.04083 1.42578C7.01727 1.42578 6.1875 2.25555 6.1875 3.27911C6.1875 4.30268 7.01727 5.13245 8.04083 5.13245Z" stroke="#0A0B0A" stroke-linecap="round" stroke-linejoin="round"/>
  <path d="M3.22052 13.2809C4.24409 13.2809 5.07385 12.4511 5.07385 11.4276C5.07385 10.404 4.24409 9.57422 3.22052 9.57422C2.19695 9.57422 1.36719 10.404 1.36719 11.4276C1.36719 12.4511 2.19695 13.2809 3.22052 13.2809Z" stroke="#0A0B0A" stroke-linecap="round" stroke-linejoin="round"/>
  <path d="M12.7791 13.2809C13.8027 13.2809 14.6324 12.4511 14.6324 11.4276C14.6324 10.404 13.8027 9.57422 12.7791 9.57422C11.7555 9.57422 10.9258 10.404 10.9258 11.4276C10.9258 12.4511 11.7555 13.2809 12.7791 13.2809Z" stroke="#0A0B0A" stroke-linecap="round" stroke-linejoin="round"/>
</svg>