<svg width="16" height="16" viewBox="0 0 16 16" fill="none" xmlns="http://www.w3.org/2000/svg">
<path d="M8.00002 7.9987C9.84097 7.9987 11.3334 6.50631 11.3334 4.66536C11.3334 2.82442 9.84097 1.33203 8.00002 1.33203C6.15907 1.33203 4.66669 2.82442 4.66669 4.66536C4.66669 6.50631 6.15907 7.9987 8.00002 7.9987Z" stroke="white" stroke-linecap="round" stroke-linejoin="round"/>
<path d="M2.27332 14.6667C2.27332 12.0867 4.83998 10 7.99998 10C8.63998 10 9.25999 10.0867 9.83999 10.2467" stroke="white" stroke-linecap="round" stroke-linejoin="round"/>
<path d="M14.6666 11.9987C14.6666 12.4987 14.5267 12.972 14.28 13.372C14.14 13.612 13.96 13.8254 13.7533 13.9987C13.2867 14.4187 12.6733 14.6654 12 14.6654C11.0266 14.6654 10.18 14.1454 9.71997 13.372C9.4733 12.972 9.33331 12.4987 9.33331 11.9987C9.33331 11.1587 9.71998 10.4054 10.3333 9.9187C10.7933 9.55203 11.3733 9.33203 12 9.33203C13.4733 9.33203 14.6666 10.5254 14.6666 11.9987Z" stroke="white" stroke-miterlimit="10" stroke-linecap="round" stroke-linejoin="round"/>
<path d="M10.96 11.9971L11.62 12.6571L13.04 11.3438" stroke="white" stroke-linecap="round" stroke-linejoin="round"/>
</svg>
