<svg width="16" height="16" viewBox="0 0 16 16" fill="none" xmlns="http://www.w3.org/2000/svg">
<path d="M7.99935 7.9987C9.8403 7.9987 11.3327 6.50631 11.3327 4.66536C11.3327 2.82442 9.8403 1.33203 7.99935 1.33203C6.1584 1.33203 4.66602 2.82442 4.66602 4.66536C4.66602 6.50631 6.1584 7.9987 7.99935 7.9987Z" stroke="#3A3A47" stroke-linecap="round" stroke-linejoin="round"/>
<path d="M2.27344 14.6667C2.27344 12.0867 4.8401 10 8.0001 10C8.6401 10 9.26011 10.0867 9.84011 10.2467" stroke="#3A3A47" stroke-linecap="round" stroke-linejoin="round"/>
<path d="M14.6673 11.9987C14.6673 12.212 14.6407 12.4187 14.5873 12.6187C14.5273 12.8854 14.4207 13.1454 14.2807 13.372C13.8207 14.1454 12.974 14.6654 12.0007 14.6654C11.314 14.6654 10.694 14.4053 10.2273 13.9787C10.0273 13.8053 9.85398 13.5987 9.72064 13.372C9.47398 12.972 9.33398 12.4987 9.33398 11.9987C9.33398 11.2787 9.62065 10.6187 10.0873 10.1387C10.574 9.63871 11.254 9.33203 12.0007 9.33203C12.7873 9.33203 13.5007 9.67204 13.9807 10.2187C14.4073 10.692 14.6673 11.3187 14.6673 11.9987Z" stroke="#3A3A47" stroke-miterlimit="10" stroke-linecap="round" stroke-linejoin="round"/>
<path d="M12.9925 11.9844H11.0059" stroke="#515162" stroke-miterlimit="10" stroke-linecap="round" stroke-linejoin="round"/>
<path d="M12 11.0117V13.005" stroke="#515162" stroke-miterlimit="10" stroke-linecap="round" stroke-linejoin="round"/>
</svg>
