<svg width="29" height="28" viewBox="0 0 29 28" fill="none" xmlns="http://www.w3.org/2000/svg">
<rect x="0.5" width="28" height="28" rx="4" fill="#D3D4DD"/>
<path d="M14.4993 13.9987C16.3403 13.9987 17.8327 12.5063 17.8327 10.6654C17.8327 8.82442 16.3403 7.33203 14.4993 7.33203C12.6584 7.33203 11.166 8.82442 11.166 10.6654C11.166 12.5063 12.6584 13.9987 14.4993 13.9987Z" stroke="#3A3A47" stroke-linecap="round" stroke-linejoin="round"/>
<path d="M8.77344 20.6667C8.77344 18.0867 11.3401 16 14.5001 16C15.1401 16 15.7601 16.0867 16.3401 16.2467" stroke="#3A3A47" stroke-linecap="round" stroke-linejoin="round"/>
<path d="M21.1673 17.9987C21.1673 18.4987 21.0273 18.972 20.7807 19.372C20.6407 19.612 20.4607 19.8254 20.254 19.9987C19.7873 20.4187 19.174 20.6654 18.5007 20.6654C17.5273 20.6654 16.6806 20.1454 16.2206 19.372C15.974 18.972 15.834 18.4987 15.834 17.9987C15.834 17.1587 16.2207 16.4054 16.834 15.9187C17.294 15.552 17.874 15.332 18.5007 15.332C19.974 15.332 21.1673 16.5254 21.1673 17.9987Z" stroke="#3A3A47" stroke-miterlimit="10" stroke-linecap="round" stroke-linejoin="round"/>
<path d="M17.4609 17.9971L18.1209 18.6571L19.5409 17.3438" stroke="#515162" stroke-linecap="round" stroke-linejoin="round"/>
</svg>
