<svg width="29" height="28" viewBox="0 0 29 28" fill="none" xmlns="http://www.w3.org/2000/svg">
<rect x="0.111816" width="28" height="28" rx="4" fill="#F3F3F3"/>
<path d="M10.4393 18.6523H8.45264" stroke="#3A3A47" stroke-miterlimit="10" stroke-linecap="round" stroke-linejoin="round"/>
<path d="M9.44482 17.6797V19.673" stroke="#3A3A47" stroke-miterlimit="10" stroke-linecap="round" stroke-linejoin="round"/>
<path d="M20.7786 14.0013V17.3346C20.7786 19.3346 19.4453 20.668 17.4453 20.668H11.1986C11.4053 20.4946 11.5853 20.2813 11.7253 20.0413C11.972 19.6413 12.112 19.168 12.112 18.668C12.112 17.1946 10.9186 16.0013 9.44531 16.0013C8.64531 16.0013 7.93198 16.3546 7.44531 16.908V14.0013C7.44531 12.188 8.53865 10.9213 10.2386 10.708C10.412 10.6813 10.592 10.668 10.7786 10.668H17.4453C17.6186 10.668 17.7853 10.6746 17.9453 10.7013C19.6653 10.9013 20.7786 12.1746 20.7786 14.0013Z" stroke="#3A3A47" stroke-linecap="round" stroke-linejoin="round"/>
<path d="M20.7786 14.332H18.7786C18.0453 14.332 17.4453 14.932 17.4453 15.6654C17.4453 16.3987 18.0453 16.9987 18.7786 16.9987H20.7786" stroke="#3A3A47" stroke-linecap="round" stroke-linejoin="round"/>
</svg>
