<svg width="21" height="20" viewBox="0 0 21 20" fill="none" xmlns="http://www.w3.org/2000/svg">
<g clip-path="url(#clip0_159_35493)">
<path d="M0.641016 9.87894C0.640547 11.5593 1.08305 13.2001 1.92445 14.6463L0.560547 19.5875L5.6568 18.2617C7.06636 19.023 8.64566 19.422 10.2505 19.4221H10.2548C15.5528 19.4221 19.8655 15.1444 19.8678 9.88646C19.8688 7.33863 18.8698 4.94282 17.0546 3.14034C15.2398 1.33801 12.8261 0.344913 10.2544 0.34375C4.9557 0.34375 0.643281 4.62127 0.641094 9.87894" fill="url(#paint0_linear_159_35493)"/>
<path d="M0.298438 9.87721C0.297891 11.6181 0.75625 13.3175 1.62766 14.8155L0.214844 19.9339L5.49383 18.5605C6.94836 19.3474 8.58602 19.7622 10.2524 19.7629H10.2567C15.7448 19.7629 20.2125 15.3312 20.2148 9.88512C20.2158 7.24574 19.1808 4.7638 17.3008 2.89674C15.4205 1.02992 12.9205 0.00108527 10.2567 0C4.76766 0 0.300625 4.43101 0.298438 9.87721ZM3.44227 14.5575L3.24516 14.2471C2.41656 12.9398 1.97922 11.4291 1.97984 9.87783C1.98156 5.35109 5.69438 1.66822 10.2598 1.66822C12.4708 1.66915 14.5486 2.52434 16.1114 4.07597C17.6741 5.62775 18.5341 7.69054 18.5335 9.8845C18.5315 14.4112 14.8186 18.0946 10.2567 18.0946H10.2534C8.76805 18.0938 7.31125 17.698 6.04078 16.95L5.73844 16.7721L2.60578 17.5871L3.44227 14.5575Z" fill="url(#paint1_linear_159_35493)"/>
<path d="M7.76836 5.74874C7.58195 5.33765 7.38578 5.32936 7.20852 5.32215C7.06336 5.31595 6.89742 5.31641 6.73164 5.31641C6.5657 5.31641 6.29609 5.37835 6.0682 5.62525C5.84008 5.87238 5.19727 6.46959 5.19727 7.68424C5.19727 8.89889 6.08891 10.0728 6.2132 10.2377C6.33766 10.4023 7.93453 12.9747 10.4636 13.9643C12.5655 14.7867 12.9932 14.6232 13.4494 14.5819C13.9056 14.5408 14.9216 13.9849 15.1288 13.4084C15.3362 12.8319 15.3363 12.3378 15.2741 12.2346C15.2119 12.1317 15.0459 12.0699 14.7971 11.9465C14.5483 11.8231 13.3249 11.2257 13.0969 11.1433C12.8687 11.061 12.7029 11.0199 12.537 11.2671C12.371 11.5139 11.8945 12.0699 11.7493 12.2346C11.6042 12.3996 11.459 12.4201 11.2102 12.2966C10.9612 12.1728 10.1599 11.9124 9.20922 11.0714C8.46953 10.417 7.97016 9.60882 7.825 9.36161C7.67984 9.11479 7.80945 8.98099 7.93422 8.85796C8.04602 8.74734 8.18313 8.56967 8.30766 8.42556C8.43172 8.28138 8.47312 8.17851 8.55609 8.01386C8.63914 7.84905 8.59758 7.70486 8.53547 7.58138C8.47312 7.45789 7.98961 6.23688 7.76836 5.74874Z" fill="white"/>
</g>
<defs>
<linearGradient id="paint0_linear_159_35493" x1="965.924" y1="1924.72" x2="965.924" y2="0.34375" gradientUnits="userSpaceOnUse">
<stop stop-color="#1FAF38"/>
<stop offset="1" stop-color="#60D669"/>
</linearGradient>
<linearGradient id="paint1_linear_159_35493" x1="1000.21" y1="1993.39" x2="1000.21" y2="0" gradientUnits="userSpaceOnUse">
<stop stop-color="#F9F9F9"/>
<stop offset="1" stop-color="white"/>
</linearGradient>
<clipPath id="clip0_159_35493">
<rect width="20" height="20" fill="white" transform="translate(0.214844)"/>
</clipPath>
</defs>
</svg>
