<svg width="28" height="29" viewBox="0 0 28 29" fill="none" xmlns="http://www.w3.org/2000/svg">
<rect y="0.5" width="28" height="28" rx="4" fill="#D3D4DD"/>
<path d="M13.332 7.83203H11.9987C8.66536 7.83203 7.33203 9.16536 7.33203 12.4987V16.4987C7.33203 19.832 8.66536 21.1654 11.9987 21.1654H15.9987C19.332 21.1654 20.6654 19.832 20.6654 16.4987V15.1654" stroke="#0A0B0A" stroke-linecap="round" stroke-linejoin="round"/>
<path d="M16.6933 8.51155L11.4399 13.7649C11.2399 13.9649 11.0399 14.3582 10.9999 14.6449L10.7133 16.6515C10.6066 17.3782 11.1199 17.8849 11.8466 17.7849L13.8533 17.4982C14.1333 17.4582 14.5266 17.2582 14.7333 17.0582L19.9866 11.8049C20.8933 10.8982 21.3199 9.84488 19.9866 8.51155C18.6533 7.17822 17.5999 7.60488 16.6933 8.51155Z" stroke="#0A0B0A" stroke-miterlimit="10" stroke-linecap="round" stroke-linejoin="round"/>
<path d="M15.9414 9.26562C16.3881 10.859 17.6347 12.1056 19.2347 12.559" stroke="#0A0B0A" stroke-miterlimit="10" stroke-linecap="round" stroke-linejoin="round"/>
</svg>
