<svg xmlns="http://www.w3.org/2000/svg" width="24" height="25" viewBox="0 0 24 25" fill="none">
  <path d="M12.5007 22.5003H4.0807C2.9207 22.5003 1.9707 21.5703 1.9707 20.4303V5.59035C1.9707 2.97035 3.9207 1.78035 6.3107 2.95035L10.7507 5.13035C11.7107 5.60035 12.5007 6.85035 12.5007 7.91035V22.5003Z" stroke="#2B3034" stroke-opacity="0.7" stroke-width="1.5" stroke-linecap="round" stroke-linejoin="round"/>
  <path d="M21.97 15.5619V19.3419C21.97 21.5019 20.97 22.5019 18.81 22.5019H12.5V10.9219L12.97 11.0219L17.47 12.0319L19.5 12.4819C20.82 12.7719 21.9 13.4519 21.96 15.3719C21.97 15.4319 21.97 15.4919 21.97 15.5619Z" stroke="#2B3034" stroke-opacity="0.7" stroke-width="1.5" stroke-linecap="round" stroke-linejoin="round"/>
  <path d="M5.5 9.5H8.97" stroke="#2B3034" stroke-opacity="0.7" stroke-width="1.5" stroke-linecap="round" stroke-linejoin="round"/>
  <path d="M5.5 13.5H8.97" stroke="#2B3034" stroke-opacity="0.7" stroke-width="1.5" stroke-linecap="round" stroke-linejoin="round"/>
  <path d="M17.4707 12.0295V15.2495C17.4707 16.4895 16.4607 17.4995 15.2207 17.4995C13.9807 17.4995 12.9707 16.4895 12.9707 15.2495V11.0195L17.4707 12.0295Z" stroke="#2B3034" stroke-opacity="0.7" stroke-width="1.5" stroke-linecap="round" stroke-linejoin="round"/>
  <path d="M21.9607 15.3713C21.9007 16.5513 20.9207 17.5013 19.7207 17.5013C18.4807 17.5013 17.4707 16.4913 17.4707 15.2513V12.0312L19.5007 12.4812C20.8207 12.7712 21.9007 13.4513 21.9607 15.3713Z" stroke="#2B3034" stroke-opacity="0.7" stroke-width="1.5" stroke-linecap="round" stroke-linejoin="round"/>
</svg>