<svg width="11" height="11" viewBox="0 0 11 11" fill="none" xmlns="http://www.w3.org/2000/svg">
<path d="M5.31816 8.29577C5.00802 8.29577 4.74219 8.02077 4.74219 7.69993V3.29993C4.74219 2.9791 5.00802 2.7041 5.31816 2.7041C5.6283 2.7041 5.89413 2.9791 5.89413 3.29993V7.74577C5.89413 8.0666 5.6283 8.29577 5.31816 8.29577Z" stroke="#1C6CED" stroke-miterlimit="10"/>
<path d="M2.96923 4.0792C3.10215 3.8042 3.45659 3.71254 3.76673 3.85004L7.48839 6.05004C7.75422 6.23337 7.84283 6.60004 7.70991 6.87504C7.53269 7.15004 7.17825 7.2417 6.91242 7.1042L3.19076 4.9042C2.88062 4.7667 2.79201 4.40004 2.96923 4.0792Z" stroke="#1C6CED" stroke-miterlimit="10"/>
<path d="M2.96741 6.92073C2.79019 6.64573 2.92311 6.27907 3.18894 6.09573L6.9106 3.89573C7.17643 3.7124 7.53087 3.8499 7.7081 4.1249C7.88532 4.3999 7.7524 4.76657 7.48657 4.9499L3.76491 7.1499C3.45477 7.2874 3.10033 7.19573 2.96741 6.92073Z" stroke="#3279EA" stroke-miterlimit="10"/>
<path d="M5.31726 10.0834C7.76419 10.0834 9.74781 8.03139 9.74781 5.50008C9.74781 2.96878 7.76419 0.916748 5.31726 0.916748C2.87034 0.916748 0.886719 2.96878 0.886719 5.50008C0.886719 8.03139 2.87034 10.0834 5.31726 10.0834Z" stroke="#3279EA" stroke-width="1.5" stroke-miterlimit="10"/>
</svg>
