<svg width="11" height="11" viewBox="0 0 11 11" fill="none" xmlns="http://www.w3.org/2000/svg">
<path d="M5.49818 8.29577C5.17734 8.29577 4.90234 8.02077 4.90234 7.69993V3.29993C4.90234 2.9791 5.17734 2.7041 5.49818 2.7041C5.81901 2.7041 6.09401 2.9791 6.09401 3.29993V7.74577C6.09401 8.0666 5.81901 8.29577 5.49818 8.29577Z" stroke="#1C6CED" stroke-width="0.8" stroke-miterlimit="10"/>
<path d="M3.07 4.0792C3.2075 3.8042 3.57417 3.71254 3.895 3.85004L7.745 6.05004C8.02 6.23337 8.11167 6.60004 7.97417 6.87504C7.79083 7.15004 7.42417 7.2417 7.14917 7.1042L3.29917 4.9042C2.97833 4.7667 2.88667 4.40004 3.07 4.0792Z" stroke="#1C6CED" stroke-width="0.8" stroke-miterlimit="10"/>
<path d="M3.07176 6.92073C2.88843 6.64573 3.02593 6.27907 3.30093 6.09573L7.15093 3.89573C7.42593 3.7124 7.79259 3.8499 7.97592 4.1249C8.15926 4.3999 8.02176 4.76657 7.74676 4.9499L3.89676 7.1499C3.57593 7.2874 3.20926 7.19573 3.07176 6.92073Z" stroke="#3279EA" stroke-width="0.8" stroke-miterlimit="10"/>
<path d="M5.5013 10.0834C8.03261 10.0834 10.0846 8.03139 10.0846 5.50008C10.0846 2.96878 8.03261 0.916748 5.5013 0.916748C2.97 0.916748 0.917969 2.96878 0.917969 5.50008C0.917969 8.03139 2.97 10.0834 5.5013 10.0834Z" stroke="#3279EA" stroke-miterlimit="10"/>
</svg>
