<svg width="11" height="11" viewBox="0 0 11 11" fill="none" xmlns="http://www.w3.org/2000/svg">
<path d="M7.17891 4.58325C7.17891 4.58325 7.0903 5.04159 5.76114 6.87492C4.47628 8.61658 6.33711 9.89992 6.55864 10.0833H6.60294C6.86878 9.85408 10.236 7.65408 7.17891 4.58325Z" stroke="#F02532" stroke-width="0.8" stroke-miterlimit="10" stroke-linecap="round" stroke-linejoin="round"/>
<path d="M6.11494 3.57508C6.11494 2.52092 5.71619 1.55842 5.31744 1.00842C5.18452 0.870915 4.96299 0.916749 4.91869 1.10008C4.74147 1.78758 4.2098 3.25425 2.92494 4.99592C1.28564 7.19592 2.79203 9.57925 4.34272 10.0376C5.18452 10.2667 4.12119 9.57925 3.98827 8.15842C3.85536 6.37091 6.11494 5.04175 6.11494 3.57508Z" stroke="#F02532" stroke-width="0.8" stroke-miterlimit="10" stroke-linecap="round" stroke-linejoin="round"/>
</svg>
