<svg width="11" height="11" viewBox="0 0 11 11" fill="none" xmlns="http://www.w3.org/2000/svg">
<path d="M7.42687 4.58337C7.42687 4.58337 7.33521 5.04171 5.96021 6.87504C4.63104 8.61671 6.55604 9.90004 6.78521 10.0834H6.83104C7.10604 9.85421 10.5894 7.65421 7.42687 4.58337Z" stroke="#9A3412" stroke-miterlimit="10" stroke-linecap="round" stroke-linejoin="round"/>
<path d="M6.32365 3.57496C6.32365 2.52079 5.91115 1.55829 5.49865 1.00829C5.36115 0.870793 5.13198 0.916627 5.08615 1.09996C4.90282 1.78746 4.35282 3.25413 3.02365 4.99579C1.32782 7.19579 2.88615 9.57913 4.49032 10.0375C5.36115 10.2666 4.26115 9.57913 4.12365 8.15829C3.98615 6.37079 6.32365 5.04163 6.32365 3.57496Z" stroke="#9A3412" stroke-miterlimit="10" stroke-linecap="round" stroke-linejoin="round"/>
</svg>
