<svg width="15" height="15" viewBox="0 0 15 15" fill="none" xmlns="http://www.w3.org/2000/svg">
<g clip-path="url(#clip0_619_12236)">
<path d="M7.30798 14.616C3.27252 14.616 0 11.3435 0 7.30798C0 3.27252 3.27252 0 7.30798 0C11.3435 0 14.616 3.27252 14.616 7.30798C14.616 11.3435 11.3435 14.616 7.30798 14.616Z" fill="url(#paint0_linear_619_12236)"/>
<path d="M7.30801 3.21846C8.63952 3.21846 8.79737 3.22285 9.32355 3.24769C9.81026 3.26962 10.0748 3.35147 10.2502 3.42016C10.4826 3.51078 10.6492 3.61894 10.8231 3.79287C10.9971 3.9668 11.1052 4.13342 11.1959 4.36582C11.2646 4.54121 11.3449 4.80576 11.3683 5.29247C11.3917 5.81864 11.3976 5.9765 11.3976 7.30801C11.3976 8.63952 11.3932 8.79738 11.3683 9.32355C11.3464 9.81026 11.2646 10.0748 11.1959 10.2502C11.1052 10.4826 10.9971 10.6492 10.8231 10.8232C10.6492 10.9971 10.4826 11.1052 10.2502 11.1959C10.0748 11.2646 9.81026 11.3449 9.32355 11.3683C8.79737 11.3917 8.63952 11.3976 7.30801 11.3976C5.97649 11.3976 5.81864 11.3932 5.29246 11.3683C4.80575 11.3464 4.5412 11.2646 4.36581 11.1959C4.13342 11.1052 3.9668 10.9971 3.79287 10.8232C3.61894 10.6492 3.51078 10.4826 3.42016 10.2502C3.35146 10.0748 3.27108 9.81026 3.24769 9.32355C3.22431 8.79738 3.21846 8.63952 3.21846 7.30801C3.21846 5.9765 3.22284 5.81864 3.24769 5.29247C3.26961 4.80576 3.35146 4.54121 3.42016 4.36582C3.51078 4.13342 3.61894 3.9668 3.79287 3.79287C3.9668 3.61894 4.13342 3.51078 4.36581 3.42016C4.5412 3.35147 4.80575 3.27108 5.29246 3.24769C5.81864 3.22285 5.97649 3.21846 7.30801 3.21846ZM7.30801 2.31958C5.95311 2.31958 5.78356 2.32543 5.25154 2.35027C4.72098 2.37512 4.3585 2.45843 4.03988 2.58267C3.71248 2.70836 3.43331 2.87937 3.15707 3.15708C2.87937 3.43478 2.70982 3.71248 2.5812 4.04134C2.45843 4.35851 2.37366 4.72098 2.34881 5.25301C2.32396 5.78503 2.31812 5.95457 2.31812 7.30947C2.31812 8.66437 2.32396 8.83392 2.34881 9.36594C2.37366 9.8965 2.45697 10.259 2.5812 10.5776C2.70836 10.9035 2.87937 11.1827 3.15707 11.4589C3.43478 11.7366 3.71248 11.9062 4.04134 12.0348C4.3585 12.1576 4.72098 12.2424 5.253 12.2672C5.78502 12.2921 5.95457 12.2979 7.30947 12.2979C8.66437 12.2979 8.83391 12.2921 9.36594 12.2672C9.8965 12.2424 10.259 12.159 10.5776 12.0348C10.9035 11.9077 11.1827 11.7366 11.4589 11.4589C11.7366 11.1812 11.9062 10.9035 12.0348 10.5747C12.1576 10.2575 12.2424 9.89504 12.2672 9.36301C12.2921 8.83099 12.2979 8.66145 12.2979 7.30655C12.2979 5.95165 12.2921 5.7821 12.2672 5.25008C12.2424 4.71952 12.159 4.35705 12.0348 4.03842C11.9077 3.71248 11.7366 3.43332 11.4589 3.15708C11.1812 2.87937 10.9035 2.70983 10.5747 2.58121C10.2575 2.45843 9.89503 2.37366 9.36301 2.34881C8.83245 2.32543 8.66291 2.31958 7.30801 2.31958Z" fill="white"/>
<path d="M7.30803 4.74585C5.8932 4.74585 4.74585 5.8932 4.74585 7.30803C4.74585 8.72285 5.8932 9.87021 7.30803 9.87021C8.72285 9.87021 9.87021 8.72285 9.87021 7.30803C9.87021 5.8932 8.72285 4.74585 7.30803 4.74585ZM7.30803 8.97133C6.39015 8.97133 5.64473 8.22737 5.64473 7.30803C5.64473 6.38868 6.39015 5.64473 7.30803 5.64473C8.22591 5.64473 8.97133 6.38868 8.97133 7.30803C8.97133 8.22737 8.22591 8.97133 7.30803 8.97133Z" fill="white"/>
<path d="M9.97108 5.24416C10.302 5.24416 10.5703 4.97587 10.5703 4.64491C10.5703 4.31395 10.302 4.04565 9.97108 4.04565C9.64012 4.04565 9.37183 4.31395 9.37183 4.64491C9.37183 4.97587 9.64012 5.24416 9.97108 5.24416Z" fill="white"/>
</g>
<defs>
<linearGradient id="paint0_linear_619_12236" x1="2.14046" y1="12.4755" x2="12.4755" y2="2.14046" gradientUnits="userSpaceOnUse">
<stop stop-color="#FFD521"/>
<stop offset="0.0551048" stop-color="#FFD020"/>
<stop offset="0.1241" stop-color="#FEC01E"/>
<stop offset="0.2004" stop-color="#FCA71B"/>
<stop offset="0.2821" stop-color="#FA8316"/>
<stop offset="0.3681" stop-color="#F85510"/>
<stop offset="0.4563" stop-color="#F51E09"/>
<stop offset="0.5" stop-color="#F30005"/>
<stop offset="0.5035" stop-color="#F20007"/>
<stop offset="0.5966" stop-color="#E1003B"/>
<stop offset="0.6879" stop-color="#D30067"/>
<stop offset="0.7757" stop-color="#C70088"/>
<stop offset="0.8589" stop-color="#BF00A0"/>
<stop offset="0.9357" stop-color="#BB00AF"/>
<stop offset="1" stop-color="#B900B4"/>
</linearGradient>
<clipPath id="clip0_619_12236">
<rect width="14.616" height="14.616" fill="white"/>
</clipPath>
</defs>
</svg>
