<svg width="17" height="17" viewBox="0 0 17 17" fill="none" xmlns="http://www.w3.org/2000/svg">
<path d="M8.6138 7.69954C8.54297 7.69246 8.45797 7.69246 8.38005 7.69954C6.69422 7.64288 5.35547 6.26163 5.35547 4.56163C5.35547 2.82621 6.75797 1.41663 8.50047 1.41663C10.2359 1.41663 11.6455 2.82621 11.6455 4.56163C11.6384 6.26163 10.2996 7.64288 8.6138 7.69954Z" stroke="#515162" stroke-width="1.0625" stroke-linecap="round" stroke-linejoin="round"/>
<path d="M5.07078 10.3134C3.35661 11.4609 3.35661 13.3309 5.07078 14.4713C7.0187 15.7746 10.2133 15.7746 12.1612 14.4713C13.8754 13.3238 13.8754 11.4538 12.1612 10.3134C10.2204 9.01712 7.02578 9.01712 5.07078 10.3134Z" stroke="#515162" stroke-width="1.0625" stroke-linecap="round" stroke-linejoin="round"/>
</svg>
