<svg width="16" height="16" viewBox="0 0 16 16" fill="none" xmlns="http://www.w3.org/2000/svg">
<path d="M4.46537 12H2.76538C1.81205 12 1.33203 11.52 1.33203 10.5667V2.76669C1.33203 1.81335 1.81205 1.33334 2.76538 1.33334H5.63204C6.58537 1.33334 7.06535 1.81335 7.06535 2.76669V4" stroke="#696979" stroke-miterlimit="10" stroke-linecap="round" stroke-linejoin="round"/>
<path d="M11.5782 5.61332V13.0533C11.5782 14.1267 11.0449 14.6667 9.97152 14.6667H6.07817C5.00483 14.6667 4.46484 14.1267 4.46484 13.0533V5.61332C4.46484 4.53999 5.00483 4 6.07817 4H9.97152C11.0449 4 11.5782 4.53999 11.5782 5.61332Z" stroke="#696979" stroke-miterlimit="10" stroke-linecap="round" stroke-linejoin="round"/>
<path d="M8.93359 4V2.76669C8.93359 1.81335 9.41357 1.33334 10.3669 1.33334H13.2336C14.1869 1.33334 14.6669 1.81335 14.6669 2.76669V10.5667C14.6669 11.52 14.1869 12 13.2336 12H11.5802" stroke="#696979" stroke-miterlimit="10" stroke-linecap="round" stroke-linejoin="round"/>
<path d="M6.66797 7.33333H9.33464" stroke="#696979" stroke-miterlimit="10" stroke-linecap="round" stroke-linejoin="round"/>
<path d="M6.66797 9.33333H9.33464" stroke="#696979" stroke-width="1.5" stroke-miterlimit="10" stroke-linecap="round" stroke-linejoin="round"/>
<path d="M8 14.6667V12.6667" stroke="#696979" stroke-width="1.5" stroke-miterlimit="10" stroke-linecap="round" stroke-linejoin="round"/>
</svg>
