<svg width="11" height="11" viewBox="0 0 11 11" fill="none" xmlns="http://www.w3.org/2000/svg">
<path d="M6.53125 10.3126C6.4775 10.3144 6.42406 10.3037 6.37523 10.2811C6.32641 10.2586 6.28355 10.2249 6.25012 10.1827C6.21668 10.1406 6.1936 10.0912 6.18272 10.0385C6.17185 9.98587 6.17348 9.93138 6.1875 9.87946C6.69281 8.01633 6.41781 6.98164 6.05688 6.44196C6.11825 7.28215 5.89285 8.11832 5.4175 8.81383C5.36472 8.88357 5.28734 8.93057 5.20113 8.94526C5.11491 8.95995 5.02633 8.94122 4.95344 8.89289C4.56597 8.64124 4.25081 8.29291 4.03906 7.88227C3.95181 8.54678 4.08078 9.22173 4.40687 9.80727C4.44204 9.86659 4.45855 9.93512 4.45426 10.0039C4.44997 10.0728 4.42508 10.1387 4.38282 10.1932C4.34055 10.2477 4.28288 10.2882 4.21728 10.3095C4.15169 10.3308 4.08121 10.3319 4.015 10.3126C3.92219 10.2645 1.71875 9.49446 1.71875 6.53133C1.72727 5.40932 1.97452 4.30197 2.44406 3.28289C2.47916 3.21438 2.53623 3.15964 2.60614 3.12742C2.67605 3.09521 2.75474 3.08739 2.82963 3.10522C2.90451 3.12304 2.97124 3.16549 3.01913 3.22575C3.06702 3.28602 3.09329 3.36061 3.09375 3.43758C3.09375 3.72977 3.4375 4.10446 3.74 4.34852C4.93281 2.90133 3.88781 1.29258 3.83969 1.22039C3.80686 1.16966 3.78799 1.11117 3.78497 1.05082C3.78196 0.990474 3.7949 0.930396 3.8225 0.876643C3.8508 0.82047 3.89397 0.773138 3.94731 0.739802C4.00064 0.706465 4.06211 0.688403 4.125 0.68758C4.5866 0.663236 5.04804 0.738426 5.47803 0.908051C5.90803 1.07768 6.29653 1.33777 6.61719 1.67071C7.19166 2.36377 7.52364 3.22572 7.5625 4.12508C7.71285 3.97206 7.8423 3.79984 7.9475 3.61289C7.97171 3.56435 8.00707 3.52222 8.05069 3.48996C8.0943 3.45769 8.14493 3.43621 8.19844 3.42727C8.25235 3.41839 8.3076 3.42249 8.35961 3.43923C8.41162 3.45597 8.45889 3.48486 8.4975 3.52352C8.57312 3.61977 9.28125 4.38977 9.28125 6.53133C9.30005 7.36271 9.05225 8.17828 8.57412 8.85868C8.09599 9.53907 7.41263 10.0486 6.62406 10.3126C6.59333 10.3176 6.56199 10.3176 6.53125 10.3126ZM5.5 5.15633C5.53728 5.15702 5.57429 5.1628 5.61 5.17352C5.69937 5.20446 7.70688 5.91946 7.02625 9.37071C7.52235 9.08619 7.93084 8.67098 8.20724 8.17032C8.48363 7.66965 8.61733 7.10274 8.59375 6.53133C8.62588 5.8105 8.50886 5.09079 8.25 4.41727C8.01374 4.70297 7.72122 4.93699 7.39062 5.10477C7.33658 5.13186 7.27633 5.14423 7.21598 5.1406C7.15563 5.13698 7.0973 5.11751 7.04688 5.08414C6.99561 5.04985 6.95452 5.00239 6.92791 4.94675C6.9013 4.8911 6.89014 4.82933 6.89562 4.76789C6.89562 4.75071 7.02969 3.10758 6.12562 2.12102C5.75837 1.72865 5.2663 1.47593 4.73344 1.40602C5.00223 2.01022 5.08043 2.68202 4.95759 3.33181C4.83476 3.9816 4.51674 4.5785 4.04594 5.04289C3.98958 5.09867 3.91567 5.13324 3.83673 5.14076C3.7578 5.14828 3.67869 5.12828 3.61281 5.08414C3.3006 4.87457 3.02236 4.61837 2.78781 4.32446C2.54858 5.03625 2.41989 5.78053 2.40625 6.53133C2.38262 7.01199 2.46246 7.49213 2.64037 7.93927C2.81828 8.38642 3.09011 8.79016 3.4375 9.12321C3.31485 8.7097 3.28826 8.27364 3.35974 7.84829C3.43123 7.42294 3.59891 7.01953 3.85 6.66883C3.89329 6.61111 3.95364 6.56848 4.02251 6.54697C4.09137 6.52545 4.16526 6.52616 4.2337 6.54897C4.30215 6.57179 4.36168 6.61556 4.40386 6.67409C4.44605 6.73261 4.46875 6.80293 4.46875 6.87508C4.50512 7.33859 4.71799 7.77047 5.06344 8.08164C5.25821 7.70499 5.36947 7.29076 5.38964 6.86721C5.40981 6.44365 5.33841 6.02073 5.18031 5.62727C5.15574 5.56631 5.14916 5.4996 5.16134 5.43502C5.17353 5.37044 5.20397 5.3107 5.24906 5.26289C5.28141 5.22896 5.32036 5.202 5.36352 5.18367C5.40667 5.16535 5.45312 5.15604 5.5 5.15633Z" fill="#A4151E"/>
</svg>
