<svg width="20" height="20" viewBox="0 0 20 20" fill="none" xmlns="http://www.w3.org/2000/svg">
<g clip-path="url(#clip0_1302_7000)">
<path d="M0.428125 9.88029C0.427656 11.5607 0.870156 13.2014 1.71156 14.6477L0.347656 19.5889L5.44391 18.263C6.85347 19.0244 8.43277 19.4233 10.0377 19.4235H10.0419C15.3399 19.4235 19.6527 15.1457 19.6549 9.88781C19.6559 7.33998 18.6569 4.94416 16.8417 3.14168C15.0269 1.33936 12.6132 0.346256 10.0415 0.345093C4.74281 0.345093 0.430391 4.62261 0.428203 9.88029" fill="url(#paint0_linear_1302_7000)"/>
<path d="M0.0835938 9.87721C0.0830469 11.6181 0.541406 13.3175 1.41281 14.8155L0 19.9339L5.27898 18.5605C6.73352 19.3474 8.37117 19.7622 10.0376 19.7629H10.0419C15.53 19.7629 19.9977 15.3312 20 9.88512C20.0009 7.24574 18.9659 4.7638 17.0859 2.89674C15.2057 1.02992 12.7057 0.00108527 10.0419 0C4.55281 0 0.0857813 4.43101 0.0835938 9.87721ZM3.22742 14.5575L3.03031 14.2471C2.20172 12.9398 1.76437 11.4291 1.765 9.87783C1.76672 5.35109 5.47953 1.66822 10.045 1.66822C12.2559 1.66915 14.3337 2.52434 15.8966 4.07597C17.4593 5.62775 18.3192 7.69054 18.3187 9.8845C18.3166 14.4112 14.6037 18.0946 10.0419 18.0946H10.0386C8.5532 18.0938 7.09641 17.698 5.82594 16.95L5.52359 16.7721L2.39094 17.5871L3.22742 14.5575Z" fill="url(#paint1_linear_1302_7000)"/>
<path d="M7.55156 5.74789C7.36516 5.3368 7.16898 5.32851 6.99172 5.3213C6.84656 5.31509 6.68062 5.31556 6.51484 5.31556C6.34891 5.31556 6.0793 5.3775 5.85141 5.6244C5.62328 5.87153 4.98047 6.46874 4.98047 7.68339C4.98047 8.89804 5.87211 10.072 5.99641 10.2369C6.12086 10.4015 7.71773 12.9739 10.2468 13.9635C12.3487 14.7859 12.7764 14.6223 13.2326 14.5811C13.6888 14.54 14.7048 13.984 14.912 13.4075C15.1195 12.8311 15.1195 12.337 15.0573 12.2337C14.9951 12.1308 14.8291 12.069 14.5803 11.9456C14.3315 11.8222 13.1081 11.2249 12.8801 11.1425C12.652 11.0601 12.4861 11.019 12.3202 11.2663C12.1542 11.5131 11.6777 12.069 11.5325 12.2337C11.3874 12.3987 11.2422 12.4193 10.9934 12.2958C10.7445 12.1719 9.94313 11.9115 8.99242 11.0705C8.25273 10.4161 7.75336 9.60796 7.6082 9.36075C7.46305 9.11393 7.59266 8.98013 7.71742 8.85711C7.82922 8.74649 7.96633 8.56882 8.09086 8.42471C8.21492 8.28052 8.25633 8.17765 8.3393 8.013C8.42234 7.8482 8.38078 7.70401 8.31867 7.58052C8.25633 7.45703 7.77281 6.23603 7.55156 5.74789Z" fill="white"/>
</g>
<defs>
<linearGradient id="paint0_linear_1302_7000" x1="965.711" y1="1924.73" x2="965.711" y2="0.345093" gradientUnits="userSpaceOnUse">
<stop stop-color="#1FAF38"/>
<stop offset="1" stop-color="#60D669"/>
</linearGradient>
<linearGradient id="paint1_linear_1302_7000" x1="1000" y1="1993.39" x2="1000" y2="0" gradientUnits="userSpaceOnUse">
<stop stop-color="#F9F9F9"/>
<stop offset="1" stop-color="white"/>
</linearGradient>
<clipPath id="clip0_1302_7000">
<rect width="20" height="20" fill="white"/>
</clipPath>
</defs>
</svg>
